<svg xmlns="http://www.w3.org/2000/svg" viewBox="0 0 512 512">
  <rect width="512" height="512" rx="96" fill="#1c1c1a"/>
  <!-- QR corner squares -->
  <rect x="80" y="80" width="120" height="120" rx="16" fill="none" stroke="#1f6f5c" stroke-width="24"/>
  <rect x="104" y="104" width="72" height="72" rx="6" fill="#1f6f5c"/>
  <rect x="312" y="80" width="120" height="120" rx="16" fill="none" stroke="#1f6f5c" stroke-width="24"/>
  <rect x="336" y="104" width="72" height="72" rx="6" fill="#1f6f5c"/>
  <rect x="80" y="312" width="120" height="120" rx="16" fill="none" stroke="#1f6f5c" stroke-width="24"/>
  <rect x="104" y="336" width="72" height="72" rx="6" fill="#1f6f5c"/>
  <!-- QR dots -->
  <rect x="312" y="312" width="32" height="32" rx="4" fill="#e8e8e4"/>
  <rect x="360" y="312" width="32" height="32" rx="4" fill="#e8e8e4"/>
  <rect x="408" y="312" width="32" height="32" rx="4" fill="#e8e8e4"/>
  <rect x="312" y="360" width="32" height="32" rx="4" fill="#e8e8e4"/>
  <rect x="408" y="360" width="32" height="32" rx="4" fill="#e8e8e4"/>
  <rect x="312" y="408" width="32" height="32" rx="4" fill="#e8e8e4"/>
  <rect x="360" y="408" width="32" height="32" rx="4" fill="#e8e8e4"/>
  <rect x="408" y="408" width="32" height="32" rx="4" fill="#e8e8e4"/>
  <!-- price tag line -->
  <rect x="240" y="240" width="16" height="96" rx="8" fill="#6b6b66"/>
</svg>
